v 0.120931 -0.841419 0.259
vn -0.00958735 -0.000821539 0.999954
vt 0.546499 0.437469
v 0.502383 -1.67137 -0.0163641
vn 0.133893 -0.256091 0.957335
vt 0.737225 0.852443
v -0.126925 -1.84508 -0.0937428
vn -0.102478 -0.307208 0.946108
vt 0.422571 0.939299
v -0.594364 -0.969379 0.0847287
vn -0.229514 -0.0413834 0.972425
vt 0.188852 0.501449
v -0.325719 0.0335196 -0.0594991
vn -0.152055 0.268625 0.951168
vt 0.323174 0
v 0.454776 0.0335196 -0.0304404
vn 0.0635289 0.291506 0.954457
vt 0.713421 0
v 0.815436 -0.629725 0.0850156
vn 0.231742 0.0385891 0.972012
vt 0.893752 0.331622
f 7/7/7 1/1/1 2/2/2
f 6/6/6 1/1/1 7/7/7
f 5/5/5 1/1/1 6/6/6
f 4/4/4 1/1/1 5/5/5
f 1/1/1 3/3/3 2/2/2
f 1/1/1 4/4/4 3/3/3
