v 0.121141 -1.86327 -0.100648
vn 0.068197 -0.326251 0.94282
vt 0.546604 0.948396
v -0.533496 -1.44528 0.02762
vn -0.257239 -0.129254 0.957665
vt 0.219286 0.739401
v -0.413851 0.00731993 -0.0558838
vn -0.264808 0.211302 0.940866
vt 0.279108 0.0130998
v 0.271255 0.0335196 -0.0258141
vn 0.102263 0.281126 0.954207
vt 0.621661 0
v 0.0257178 -0.843889 0.259
vn -0.0265219 -0.00123554 0.999647
vt 0.498892 0.438704
v 0.683539 -0.951731 0.106543
vn 0.218983 -0.0423291 0.97481
vt 0.827803 0.492625
f 4/4/4 5/5/5 6/6/6
f 3/3/3 5/5/5 4/4/4
f 2/2/2 5/5/5 3/3/3
f 1/1/1 5/5/5 2/2/2
f 1/1/1 6/6/6 5/5/5
