v -2.4887 1.13668 -0.477632
vn 0.59329 0.804989 -0.000214
vt 0.043187 0.91096
v -1.86382 0.887178 -1.65664
vn 0.206145 0.949209 0.237712
vt 0.2151 1.01
v -1.86382 0.887178 1.73982
vn 0.231282 0.945193 -0.230474
vt 0.00337 0.4725
v -1.71668 0.828531 -1.50809
vn -0.278099 -0.9102 -0.306914
vt 1 1
v -1.6921 0.834956 1.60329
vn -0.271095 -0.920825 0.280337
vt 1 0
v -0.933936 0.552965 0.104885
vn 0.178296 0.983977 -0.000107
vt 0.165278 0.595961
v -0.725741 0.552965 -0.51165
vn -0.39126 -0.832905 -0.391389
vt 0.2439 0.675
v -0.663278 0.552965 0.675154
vn -0.368893 -0.834119 0.410078
vt 0.1532 0.4937
v -0.064668 0.552965 -0.705819
vn 0 0.984537 0.175174
vt 0.29269 0.601595
v -0.064668 0.552965 0.91559
vn -0.000698 0.97993 -0.19934
vt 0.181028 0.356936
v -0.064668 0.870698 0.104885
vn 0 1 0
vt 0.236065 0.478954
v -0.050721 1.25068 -2.50576
vn 0 0.798647 0.6018
vt 0.4246 0.8905
v -0.045653 -0.128173 0.042077
vn -0.0011 -0.999962 -0.008685
vt 0.749787 0.492618
v -0.043098 -0.030195 0.046977
vn 0.0098 -0.999557 -0.028091
vt 0.2439 0.4937
v 0.018983 1.21121 2.49424
vn 0.004382 0.776714 -0.629838
vt 0.055359 0.089479
v 0.555327 0.552965 0.706607
vn 0.356329 -0.83654 0.416209
vt 0.2439 0.3123
v 0.596406 0.552965 -0.51165
vn 0.395159 -0.82345 -0.40716
vt 0.3345 0.4937
v 0.804581 0.552965 0.104885
vn -0.170993 0.985272 -0.000214
vt 0.305261 0.361328
v 1.60086 0.816785 -1.53076
vn 0.264573 -0.914791 -0.305219
vt 0.5 1
v 1.62512 0.798882 1.55578
vn 0.28192 -0.916889 0.282552
vt 0.5 0
v 1.73374 0.888541 1.57269
vn -0.226198 0.94593 -0.232488
vt 0.280186 -0.00485
v 1.77801 0.887178 -1.65664
vn -0.206179 0.9508 0.231234
vt 0.489393 0.5
v 2.27235 1.09658 0.0827
vn -0.584312 0.811529 0.000965
vt 0.43069 0.155493
f 8/8/8 7/7/7 14/14/14
f 14/14/14 17/17/17 16/16/16
f 7/7/7 17/17/17 14/14/14
f 8/8/8 14/14/14 16/16/16
f 4/4/4 19/19/19 13/13/13
f 19/19/19 20/20/20 13/13/13
f 4/4/4 13/13/13 5/5/5
f 13/13/13 20/20/20 5/5/5
f 11/11/11 9/9/9 6/6/6
f 9/9/9 2/2/2 6/6/6
f 10/10/10 11/11/11 6/6/6
f 10/10/10 6/6/6 3/3/3
f 18/18/18 11/11/11 10/10/10
f 21/21/21 18/18/18 10/10/10
f 18/18/18 9/9/9 11/11/11
f 22/22/22 9/9/9 18/18/18
f 12/12/12 2/2/2 9/9/9
f 15/15/15 10/10/10 3/3/3
f 21/21/21 10/10/10 15/15/15
f 23/23/23 18/18/18 21/21/21
f 23/23/23 22/22/22 18/18/18
f 6/6/6 1/1/1 3/3/3
f 2/2/2 1/1/1 6/6/6
f 22/22/22 12/12/12 9/9/9
