# This file uses centimeters as units for non-parametric coordinates.

mtllib ElephantGrass_DuoMesh.mtl
g default
v 0.021323 -0.003415 0.043252
v 0.021698 0.000577 -0.036168
v -0.482845 -0.006872 0.147052
v -0.471335 0.000000 0.014239
v -0.454649 0.009962 -0.178303
v -0.871476 -0.120457 0.208383
v -0.912501 -0.129766 -0.248020
vt 0.501599 0.039258
vt 0.560782 0.039258
vt 0.343613 0.500000
vt 0.483108 0.500000
vt 0.674121 0.500000
vt 0.237143 0.883227
vt 0.650079 0.958786
vn -0.142961 0.989173 0.033161
vn -0.142961 0.989173 0.033161
vn 0.004018 0.998656 0.051665
vn 0.004018 0.998656 0.051665
vn -0.142961 0.989173 0.033161
vn -0.286790 0.957892 0.013926
vn -0.286790 0.957892 0.013926
s 1
g pPlane1
usemtl initialShadingGroup
f 4/4/1 3/3/2 1/1/3 2/2/4 5/5/5
f 7/7/6 6/6/7 3/3/2 4/4/1 5/5/5
